<?xml version="1.0" encoding="UTF-8"?>
<svg width="466px" height="400px" viewBox="0 0 466 400" version="1.1" xmlns="http://www.w3.org/2000/svg" xmlns:xlink="http://www.w3.org/1999/xlink">
    <title>Logo</title>
    <g id="Page-1" stroke="none" stroke-width="1" fill="none" fill-rule="evenodd">
        <g id="Logo" transform="translate(-304.000000, -312.000000)" fill="#000000">
            <path d="M387.381436,321.31757 C396.52459,310.184874 407.56989,309.074432 418.428831,317.738194 C450.56482,343.379896 482.613413,369.139839 514.343268,395.281497 C523.69463,402.985189 527.564469,412.68999 518.256805,423.584918 L518.256934,423.584918 C512.13665,431.322027 506.017651,439.059135 499.896082,446.800099 C499.895416,446.79992 499.89475,446.799742 499.894084,446.799564 C486.57033,463.44874 473.339889,480.174707 459.898703,496.72848 C441.553274,519.322892 441.577694,519.141674 464.918827,536.710822 C470.018635,540.548531 472.553116,540.750312 476.960183,535.195531 C496.832011,510.150178 517.254608,485.54145 537.535435,460.819846 L542.212795,455.112606 L549.831211,445.86734 L557.453612,436.618475 L564.470857,427.860944 C587.85102,398.660419 611.139352,369.384384 634.777141,340.393012 C643.336798,329.893936 653.996529,328.982705 664.88246,337.656749 C697.086566,363.3203 729.109454,389.216478 760.953695,415.323435 C771.508036,423.976915 772.950068,434.704762 764.60633,445.431324 C751.458387,462.337291 737.446767,478.572366 723.800153,495.091478 C720.964927,498.463932 718.129701,501.836385 715.29319,505.208839 C714.630677,506.119993 713.976205,507.037691 713.324701,507.957818 L711.374016,510.721368 C709.422087,513.483972 707.451206,516.231391 705.324401,518.852497 C661.711274,572.590697 618.015891,626.260781 574.389911,679.988699 C562.678859,694.410309 553.407182,695.70711 538.850623,684.169565 C524.773455,673.012449 510.664158,661.863045 497.137071,650.059457 C490.563099,644.322173 486.681693,643.800368 480.98168,651.381963 C468.616445,667.829101 455.175468,683.462686 442.297425,699.529396 C430.276632,714.528075 420.553837,715.943118 405.84305,704.067557 C376.186277,680.126219 346.610474,656.083348 317.111785,631.946655 C300.501422,618.355307 299.986043,609.359955 313.789456,592.506682 C320.07425,584.833836 326.31157,577.121076 332.541049,569.401887 L340.015196,560.137918 C352.47429,544.69997 364.965429,529.289881 377.805672,514.175531 C384.095607,506.772583 382.525051,503.641753 375.812274,498.371009 C355.99057,482.805082 336.609925,466.679521 317.103342,450.714647 L312.599329,447.033626 C312.599426,447.033287 312.599523,447.032949 312.59962,447.03261 C301.078137,435.59647 301.250094,426.854637 313.269836,413.116688 L319.434018,405.457034 C342.02496,377.362248 364.504486,349.176836 387.381436,321.31757 Z" transform="translate(536.997674, 512.000000) scale(-1, 1) rotate(180.000000) translate(-536.997674, -512.000000) "></path>
        </g>
    </g>
</svg>