<svg width="31" height="28" viewBox="0 0 31 28" fill="none" xmlns="http://www.w3.org/2000/svg">
<path d="M24.9005 12.3861H15.3153C9.54531 12.3861 4.408 15.3933 0.850311 20.8541L5.65367 23.9839C7.39692 21.3082 10.488 18.119 15.3153 18.119H24.9005V12.3861Z" fill="#061D62"/>
<path d="M0.850258 20.8541V19.1977L5.72006 22.2266L5.65361 23.4966L0.850258 20.8541Z" fill="#061D62"/>
<path d="M26.6313 21.4545V21.4558H17.0461C12.2189 21.4558 9.12777 24.6451 7.38452 27.3206H30.8427L26.6313 21.4545Z" fill="#24C5C9"/>
<path d="M26.6313 8.36106V8.35973H17.0461C12.2189 8.35973 9.12777 5.17061 7.38452 2.495H30.8427L26.6313 8.36106Z" fill="#24C5C9"/>
<path d="M7.38452 2.49505V0.833923H30.8426V2.49505L14.1561 3.03516L7.38452 2.49505Z" fill="#24C5C9"/>
<path d="M30.8426 26.3589H7.38452V27.8339H30.8426V26.3589Z" fill="#24C5C9"/>
<path d="M0.85027 9.34604V7.99359L1.92355 8.06162L1.57077 9.03663L0.85027 9.34604Z" fill="#7654E6"/>
<path d="M24.9005 10.7298H15.3153C9.54531 10.7298 4.408 13.7371 0.850311 19.1979L5.65367 22.3276C7.39692 19.652 10.488 16.4627 15.3153 16.4627H24.9005V10.7298Z" fill="#063788"/>
<path d="M24.9005 17.231H15.3153C9.54531 17.231 4.11718 14.425 0.850311 9.34603L5.65367 5.63321C7.39692 8.30883 10.488 11.4979 15.3153 11.4979H24.9005V17.231Z" fill="#7654E6"/>
<path d="M26.6313 6.69999V6.69866H17.0461C12.2189 6.69866 9.12777 3.50954 7.38452 0.833923H30.8427L26.6313 6.69999Z" fill="#24E7DF"/>
<path d="M26.6313 20.4929V20.4942H17.0461C12.2189 20.4942 9.12777 23.6834 7.38452 26.3589H30.8427L26.6313 20.4929Z" fill="#24E7DF"/>
<path d="M24.9005 16.4616H15.3153C9.54531 16.4616 4.408 13.4544 0.850311 7.99354L5.65367 4.86383C7.39692 7.53945 10.488 10.7286 15.3153 10.7286H24.9005V16.4616Z" fill="#8B7AFF"/>
</svg>
